<svg xmlns="http://www.w3.org/2000/svg" width="18" height="18" viewBox="0 0 18 18">
  <g fill="#FFF" fill-rule="evenodd">
    <path d="M7.99999899 5L4 5 4 8.00134579.999999874 8.00134579C.337373695 8.00134579 0 7.79730541 0 7.13467924L0 .866666557C0 .204040378.337373695 0 .999999874 0L7.00067252 0C7.6639721 0 8.00067239.204040378 7.99999899.866666557L7.99999899 5zM10 13L14 13 14 10 17.0006725 10C17.6639721 10 18.0006724 10.2040404 17.999999 10.8666666L17.999999 17.1346792C17.999999 17.7973054 17.6632987 18.0013458 17.0006725 18.0013458L10.9999999 18.0013458C10.3373737 18.0013458 10 17.7973054 10 17.1346792L10 13zM11.7501681 2L10.25 2C10.0843434 2 10 2.05101009 10 2.21666664L10 3.78366981C10 3.94932635 10.0843434 4.00033645 10.25 4.00033645L11.7501681 4.00033645C11.9158247 4.00033645 11.9999997 3.94932635 11.9999997 3.78366981L11.9999997 2.21666664C12.0001681 2.05101009 11.915993 2 11.7501681 2L11.7501681 2zM3.75016813 10L2.24999997 10C2.08434342 10 2 10.0510101 2 10.2166666L2 11.7836698C2 11.9493264 2.08434342 12.0003364 2.24999997 12.0003364L3.75016813 12.0003364C3.91582467 12.0003364 3.99999975 11.9493264 3.99999975 11.7836698L3.99999975 10.2166666C4.0001681 10.0510101 3.91599302 10 3.75016813 10L3.75016813 10zM15.7501681 2L14.25 2C14.0843434 2 14 2.05101009 14 2.21666664L14 3.78366981C14 3.94932635 14.0843434 4.00033645 14.25 4.00033645L15.7501681 4.00033645C15.9158247 4.00033645 15.9999997 3.94932635 15.9999997 3.78366981L15.9999997 2.21666664C16.0001681 2.05101009 15.915993 2 15.7501681 2L15.7501681 2zM3.75016813 14L2.24999997 14C2.08434342 14 2 14.0510101 2 14.2166666L2 15.7836698C2 15.9493264 2.08434342 16.0003364 2.24999997 16.0003364L3.75016813 16.0003364C3.91582467 16.0003364 3.99999975 15.9493264 3.99999975 15.7836698L3.99999975 14.2166666C4.0001681 14.0510101 3.91599302 14 3.75016813 14L3.75016813 14zM15.7501681 6L14.25 6C14.0843434 6 14 6.05101009 14 6.21666664L14 7.78366981C14 7.94932635 14.0843434 8.00033645 14.25 8.00033645L15.7501681 8.00033645C15.9158247 8.00033645 15.9999997 7.94932635 15.9999997 7.78366981L15.9999997 6.21666664C16.0001681 6.05101009 15.915993 6 15.7501681 6L15.7501681 6zM7.75016813 14L6.24999997 14C6.08434342 14 6 14.0510101 6 14.2166666L6 15.7836698C6 15.9493264 6.08434342 16.0003364 6.24999997 16.0003364L7.75016813 16.0003364C7.91582467 16.0003364 7.99999975 15.9493264 7.99999975 15.7836698L7.99999975 14.2166666C8.0001681 14.0510101 7.91599302 14 7.75016813 14L7.75016813 14z"/>
    <rect width="6" height="2" x="6" y="8"/>
  </g>
</svg>
